HIERARCHY
ROOT Hips
{
  OFFSET 48.6096 101.032 41.7514
  CHANNELS 6 Xposition Yposition Zposition Zrotation Xrotation Yrotation
  JOINT spine
  {
    OFFSET 0 8.81704 0.507024
    CHANNELS 3 Zrotation Xrotation Yrotation
    JOINT spine1
    {
      OFFSET 0 10.7766 0
      CHANNELS 3 Zrotation Xrotation Yrotation
      JOINT spine2
      {
        OFFSET 0 10.3259 0
        CHANNELS 3 Zrotation Xrotation Yrotation
        JOINT Neck
        {
          OFFSET 0 26.511 1.26395
          CHANNELS 3 Zrotation Xrotation Yrotation
          JOINT Head
          {
            OFFSET 0 8.00966 0
            CHANNELS 3 Zrotation Xrotation Yrotation
            End Site
            {
              OFFSET 0 19.3879 -6.39386
            }
          }
        }
        JOINT RightShoulder
        {
          OFFSET -4.34795 11.1512 -0.605422
          CHANNELS 3 Zrotation Xrotation Yrotation
          JOINT RightArm
          {
            OFFSET 0 14.6258 0
            CHANNELS 3 Zrotation Xrotation Yrotation
            JOINT RightArmRoll
            {
              OFFSET 0 7.3834 0
              CHANNELS 3 Zrotation Xrotation Yrotation
              JOINT RightForeArm
              {
                OFFSET 0 21.5052 0
                CHANNELS 3 Zrotation Xrotation Yrotation
                JOINT RightForeArmRoll
                {
                  OFFSET 0 8.28532 0
                  CHANNELS 3 Zrotation Xrotation Yrotation
                  JOINT RightHand
                  {
                    OFFSET 0 16.6268 0
                    CHANNELS 3 Zrotation Xrotation Yrotation
                    End Site
                    {
                      OFFSET 0 0 0
                    }
                  }
                }
              }
            }
          }
        }
        JOINT LeftShoulder
        {
          OFFSET 4.34795 11.1512 -0.605422
          CHANNELS 3 Zrotation Xrotation Yrotation
          JOINT LeftArm
          {
            OFFSET 0 14.6258 0
            CHANNELS 3 Zrotation Xrotation Yrotation
            JOINT LeftArmRoll
            {
              OFFSET 0 7.3834 0
              CHANNELS 3 Zrotation Xrotation Yrotation
              JOINT LeftForeArm
              {
                OFFSET 0 21.5052 0
                CHANNELS 3 Zrotation Xrotation Yrotation
                JOINT LeftForeArmRoll
                {
                  OFFSET 0 8.28532 0
                  CHANNELS 3 Zrotation Xrotation Yrotation
                  JOINT LeftHand
                  {
                    OFFSET 0 16.6268 0
                    CHANNELS 3 Zrotation Xrotation Yrotation
                    End Site
                    {
                      OFFSET 0 0 0
                    }
                  }
                }
              }
            }
          }
        }
      }
    }
  }
  JOINT RightUpLeg
  {
    OFFSET -7.8151 -1.43309 -1.20217
    CHANNELS 3 Zrotation Xrotation Yrotation
    JOINT RightUpLegRoll
    {
      OFFSET 0 19.4959 0
      CHANNELS 3 Zrotation Xrotation Yrotation
      JOINT RightLeg
      {
        OFFSET 0 -24.1427 0
        CHANNELS 3 Zrotation Xrotation Yrotation
        JOINT RightLegRoll
        {
          OFFSET 0 24.2217 0
          CHANNELS 3 Zrotation Xrotation Yrotation
          JOINT RightFoot
          {
            OFFSET 0 20.1605 0
            CHANNELS 3 Zrotation Xrotation Yrotation
            JOINT RightToeBase
            {
              OFFSET 0 16.8532 0
              CHANNELS 3 Zrotation Xrotation Yrotation
              End Site
              {
                OFFSET 0.00714343 8.16187 -0.940781
              }
            }
          }
        }
      }
    }
  }
  JOINT LeftUpLeg
  {
    OFFSET 7.8151 -1.43309 -1.20217
    CHANNELS 3 Zrotation Xrotation Yrotation
    JOINT LeftUpLegRoll
    {
      OFFSET 0 19.496 0
      CHANNELS 3 Zrotation Xrotation Yrotation
      JOINT LeftLeg
      {
        OFFSET 0 24.1426 0
        CHANNELS 3 Zrotation Xrotation Yrotation
        JOINT LeftLegRoll
        {
          OFFSET 0 24.4456 0
          CHANNELS 3 Zrotation Xrotation Yrotation
          JOINT LeftFoot
          {
            OFFSET 0 19.9366 0
            CHANNELS 3 Zrotation Xrotation Yrotation
            JOINT LeftToeBase
            {
              OFFSET 0 16.8532 0
              CHANNELS 3 Zrotation Xrotation Yrotation
              End Site
              {
                OFFSET -0.0320138 8.16186 -0.940781
              }
            }
          }
        }
      }
    }
  }
}
MOTION
Frames: 4
Frame Time: 0.00208333
50.4176 51.5435 9.42513 0.582436 -14.8954 -1.87187 0.643203 -0.927782 -2.43999 1.26496 2.09614 -4.97257 1.32573 3.73838 -4.9973 -57.9996 45.5965 39.6742 25.7737 -37.5717 18.2168 70.2018 23.7446 9.89799 98.4028 20.6151 5.97951 9.54166e-015 -9.54166e-015 5.56597e-015 16.9737 37.1864 -7.3333 -8.97597e-006 3.36504e-006 -2.99999 8.02885 -4.95099 0.697495 -90.5956 -8.14571 5.80578 -75.3191 20.1016 -0.952491 -2.75543e-005 -6.53431e-007 -6.77749e-006 -19.2091 45.0156 9.47843 3.06901e-006 -5.81624e-006 3.00756 -8.02884 -4.95123 -0.697585 136.558 80.6819 46.2024 180 7.01443e-015 178.539 -17.8291 82.3218 18.7402 -2.99257e-007 -3.05125e-006 1.79144 -20.8648 66.7985 18.5136 8.13553 25.2342 -3.47634 -123.256 74.4039 -62.6534 4.54188e-006 -4.6773e-006 -1.77588 166.304 -75.5053 164.437 5.53913e-006 -4.97193e-006 -2.40813 26.0628 71.3035 -23.2029 -8.14166 25.2325 3.48467 
50.4089 51.4903 9.50756 0.580958 -14.8987 -1.87248 0.643435 -0.926746 -2.43922 1.26588 2.09972 -4.9701 1.32663 3.74197 -4.99485 -57.9923 45.5972 39.6737 25.7535 -37.5468 18.2059 70.2033 23.7411 9.89581 98.3922 20.6176 5.97101 7.95139e-016 0 -7.95139e-016 16.9799 37.1898 -7.33523 -8.97597e-006 3.36504e-006 -2.99999 8.02885 -4.95099 0.697495 -90.591 -8.14665 5.80595 -75.3273 20.1094 -0.946439 -2.75543e-005 -6.53431e-007 -6.77749e-006 -19.208 45.0114 9.47659 3.06901e-006 -5.81624e-006 3.00756 -8.02884 -4.95123 -0.697585 136.697 80.6844 46.0856 180 7.01442e-015 178.538 -17.7817 82.3162 18.6927 -2.99257e-007 -3.05125e-006 1.79428 -20.8494 66.7489 18.472 8.13553 25.2342 -3.47634 -123.253 74.4059 -62.6523 4.54188e-006 -4.6773e-006 -1.77588 166.3 -75.502 164.433 5.53913e-006 -4.97193e-006 -2.40818 26.0554 71.3017 -23.1994 -8.14166 25.2325 3.48467 
50.4109 51.5093 9.47074 0.5797 -14.9021 -1.8733 0.643605 -0.92577 -2.43846 1.26668 2.10324 -4.96762 1.32741 3.74548 -4.99239 -57.9855 45.5971 39.6735 25.7335 -37.521 18.1953 70.2055 23.7379 9.8935 98.3812 20.6202 5.96258 7.15625e-015 -3.18055e-015 4.77083e-015 16.9863 37.193 -7.33716 -8.97597e-006 3.36504e-006 -2.99999 8.02885 -4.95099 0.697495 -90.5864 -8.14773 5.80617 -75.3354 20.1171 -0.940987 -2.75543e-005 -6.53431e-007 -6.77749e-006 -19.2065 45.0071 9.47458 3.06901e-006 -5.81624e-006 3.00756 -8.02884 -4.95123 -0.697585 136.841 80.687 45.9656 180 7.01442e-015 178.536 -17.7319 82.3105 18.6429 -2.99257e-007 -3.05125e-006 1.79725 -20.8344 66.6977 18.4294 8.13553 25.2342 -3.47634 -123.249 74.4076 -62.6519 4.54188e-006 -4.6773e-006 -1.77588 166.297 -75.4985 164.43 5.53913e-006 -4.97193e-006 -2.40826 26.0483 71.3 -23.1961 -8.14166 25.2325 3.48467 
50.4086 51.4858 9.49697 0.578598 -14.9055 -1.87426 0.643732 -0.924836 -2.4377 1.2674 2.10671 -4.96514 1.32811 3.74895 -4.98991 -57.979 45.5965 39.6735 25.7138 -37.4946 18.185 70.2081 23.7348 9.89109 98.3698 20.6227 5.95419 7.15625e-015 -6.36111e-015 3.18055e-015 16.9928 37.1962 -7.33911 -8.97597e-006 3.36504e-006 -2.99999 8.02885 -4.95099 0.697495 -90.582 -8.14891 5.80641 -75.3435 20.1248 -0.935956 -2.75543e-005 -6.53431e-007 -6.77749e-006 -19.2048 45.0026 9.47246 3.06901e-006 -5.81624e-006 3.00756 -8.02884 -4.95123 -0.697585 136.988 80.6896 45.8435 180 7.01441e-015 178.534 -17.6805 82.3047 18.5913 -2.99257e-007 -3.05125e-006 1.80031 -20.8197 66.6455 18.386 8.13553 25.2342 -3.47634 -123.245 74.4091 -62.6519 4.54188e-006 -4.6773e-006 -1.77588 166.294 -75.4949 164.428 5.53913e-006 -4.97193e-006 -2.40836 26.0412 71.2984 -23.1929 -8.14166 25.2325 3.48467 
